<mxfile host="app.diagrams.net" agent="Mozilla/5.0 (Windows NT 10.0; Win64; x64) AppleWebKit/537.36 (KHTML, like Gecko) Chrome/128.0.0.0 Safari/537.36 OPR/114.0.0.0" version="25.0.3">
  <diagram name="Сторінка-1" id="TLICFXeNMDQCJqBRDoHr">
    <mxGraphModel dx="1432" dy="738" grid="1" gridSize="10" guides="1" tooltips="1" connect="1" arrows="1" fold="1" page="1" pageScale="1" pageWidth="1169" pageHeight="1654" math="0" shadow="0">
      <root>
        <mxCell id="0" />
        <mxCell id="1" parent="0" />
        <mxCell id="C7eaALjE-LQ2mHw-FxNQ-47" value="AlterCommandHandler" style="swimlane;fontStyle=1;align=center;verticalAlign=top;childLayout=stackLayout;horizontal=1;startSize=26;horizontalStack=0;resizeParent=1;resizeParentMax=0;resizeLast=0;collapsible=1;marginBottom=0;whiteSpace=wrap;html=1;" vertex="1" parent="1">
          <mxGeometry x="120" y="470" width="280" height="164" as="geometry" />
        </mxCell>
        <mxCell id="C7eaALjE-LQ2mHw-FxNQ-48" value="+ AlterCommandHandler()" style="text;strokeColor=none;fillColor=none;align=left;verticalAlign=top;spacingLeft=4;spacingRight=4;overflow=hidden;rotatable=0;points=[[0,0.5],[1,0.5]];portConstraint=eastwest;whiteSpace=wrap;html=1;" vertex="1" parent="C7eaALjE-LQ2mHw-FxNQ-47">
          <mxGeometry y="26" width="280" height="26" as="geometry" />
        </mxCell>
        <mxCell id="C7eaALjE-LQ2mHw-FxNQ-49" value="" style="line;strokeWidth=1;fillColor=none;align=left;verticalAlign=middle;spacingTop=-1;spacingLeft=3;spacingRight=3;rotatable=0;labelPosition=right;points=[];portConstraint=eastwest;strokeColor=inherit;" vertex="1" parent="C7eaALjE-LQ2mHw-FxNQ-47">
          <mxGeometry y="52" width="280" height="8" as="geometry" />
        </mxCell>
        <mxCell id="C7eaALjE-LQ2mHw-FxNQ-50" value="# authorize(User): boolean" style="text;strokeColor=none;fillColor=none;align=left;verticalAlign=top;spacingLeft=4;spacingRight=4;overflow=hidden;rotatable=0;points=[[0,0.5],[1,0.5]];portConstraint=eastwest;whiteSpace=wrap;html=1;" vertex="1" parent="C7eaALjE-LQ2mHw-FxNQ-47">
          <mxGeometry y="60" width="280" height="26" as="geometry" />
        </mxCell>
        <mxCell id="C7eaALjE-LQ2mHw-FxNQ-51" value="# executeCommand(String, User): FtpResponse" style="text;strokeColor=none;fillColor=none;align=left;verticalAlign=top;spacingLeft=4;spacingRight=4;overflow=hidden;rotatable=0;points=[[0,0.5],[1,0.5]];portConstraint=eastwest;whiteSpace=wrap;html=1;" vertex="1" parent="C7eaALjE-LQ2mHw-FxNQ-47">
          <mxGeometry y="86" width="280" height="26" as="geometry" />
        </mxCell>
        <mxCell id="C7eaALjE-LQ2mHw-FxNQ-52" value="- changeUsername(User, String): FtpResponse" style="text;strokeColor=none;fillColor=none;align=left;verticalAlign=top;spacingLeft=4;spacingRight=4;overflow=hidden;rotatable=0;points=[[0,0.5],[1,0.5]];portConstraint=eastwest;whiteSpace=wrap;html=1;" vertex="1" parent="C7eaALjE-LQ2mHw-FxNQ-47">
          <mxGeometry y="112" width="280" height="26" as="geometry" />
        </mxCell>
        <mxCell id="C7eaALjE-LQ2mHw-FxNQ-53" value="- changePassword(User, String): FtpResponse" style="text;strokeColor=none;fillColor=none;align=left;verticalAlign=top;spacingLeft=4;spacingRight=4;overflow=hidden;rotatable=0;points=[[0,0.5],[1,0.5]];portConstraint=eastwest;whiteSpace=wrap;html=1;" vertex="1" parent="C7eaALjE-LQ2mHw-FxNQ-47">
          <mxGeometry y="138" width="280" height="26" as="geometry" />
        </mxCell>
        <mxCell id="C7eaALjE-LQ2mHw-FxNQ-1" value="BaseCommandHandler" style="swimlane;fontStyle=1;align=center;verticalAlign=top;childLayout=stackLayout;horizontal=1;startSize=26;horizontalStack=0;resizeParent=1;resizeParentMax=0;resizeLast=0;collapsible=1;marginBottom=0;whiteSpace=wrap;html=1;" vertex="1" parent="1">
          <mxGeometry x="445" y="20" width="280" height="138" as="geometry" />
        </mxCell>
        <mxCell id="C7eaALjE-LQ2mHw-FxNQ-2" value="+ BaseCommandHandler()" style="text;strokeColor=none;fillColor=none;align=left;verticalAlign=top;spacingLeft=4;spacingRight=4;overflow=hidden;rotatable=0;points=[[0,0.5],[1,0.5]];portConstraint=eastwest;whiteSpace=wrap;html=1;" vertex="1" parent="C7eaALjE-LQ2mHw-FxNQ-1">
          <mxGeometry y="26" width="280" height="26" as="geometry" />
        </mxCell>
        <mxCell id="C7eaALjE-LQ2mHw-FxNQ-3" value="" style="line;strokeWidth=1;fillColor=none;align=left;verticalAlign=middle;spacingTop=-1;spacingLeft=3;spacingRight=3;rotatable=0;labelPosition=right;points=[];portConstraint=eastwest;strokeColor=inherit;" vertex="1" parent="C7eaALjE-LQ2mHw-FxNQ-1">
          <mxGeometry y="52" width="280" height="8" as="geometry" />
        </mxCell>
        <mxCell id="C7eaALjE-LQ2mHw-FxNQ-4" value="# authorize(User): boolean" style="text;strokeColor=none;fillColor=none;align=left;verticalAlign=top;spacingLeft=4;spacingRight=4;overflow=hidden;rotatable=0;points=[[0,0.5],[1,0.5]];portConstraint=eastwest;whiteSpace=wrap;html=1;" vertex="1" parent="C7eaALjE-LQ2mHw-FxNQ-1">
          <mxGeometry y="60" width="280" height="26" as="geometry" />
        </mxCell>
        <mxCell id="C7eaALjE-LQ2mHw-FxNQ-5" value="# executeCommand(String, User): FtpResponse" style="text;strokeColor=none;fillColor=none;align=left;verticalAlign=top;spacingLeft=4;spacingRight=4;overflow=hidden;rotatable=0;points=[[0,0.5],[1,0.5]];portConstraint=eastwest;whiteSpace=wrap;html=1;" vertex="1" parent="C7eaALjE-LQ2mHw-FxNQ-1">
          <mxGeometry y="86" width="280" height="26" as="geometry" />
        </mxCell>
        <mxCell id="C7eaALjE-LQ2mHw-FxNQ-6" value="+ handlerCommand(String, User): FtpResponse" style="text;strokeColor=none;fillColor=none;align=left;verticalAlign=top;spacingLeft=4;spacingRight=4;overflow=hidden;rotatable=0;points=[[0,0.5],[1,0.5]];portConstraint=eastwest;whiteSpace=wrap;html=1;" vertex="1" parent="C7eaALjE-LQ2mHw-FxNQ-1">
          <mxGeometry y="112" width="280" height="26" as="geometry" />
        </mxCell>
        <mxCell id="C7eaALjE-LQ2mHw-FxNQ-7" value="PwdCommandHandler" style="swimlane;fontStyle=1;align=center;verticalAlign=top;childLayout=stackLayout;horizontal=1;startSize=26;horizontalStack=0;resizeParent=1;resizeParentMax=0;resizeLast=0;collapsible=1;marginBottom=0;whiteSpace=wrap;html=1;" vertex="1" parent="1">
          <mxGeometry y="180" width="270" height="112" as="geometry" />
        </mxCell>
        <mxCell id="C7eaALjE-LQ2mHw-FxNQ-8" value="+ PwdCommandHandler(String)" style="text;strokeColor=none;fillColor=none;align=left;verticalAlign=top;spacingLeft=4;spacingRight=4;overflow=hidden;rotatable=0;points=[[0,0.5],[1,0.5]];portConstraint=eastwest;whiteSpace=wrap;html=1;" vertex="1" parent="C7eaALjE-LQ2mHw-FxNQ-7">
          <mxGeometry y="26" width="270" height="26" as="geometry" />
        </mxCell>
        <mxCell id="C7eaALjE-LQ2mHw-FxNQ-9" value="" style="line;strokeWidth=1;fillColor=none;align=left;verticalAlign=middle;spacingTop=-1;spacingLeft=3;spacingRight=3;rotatable=0;labelPosition=right;points=[];portConstraint=eastwest;strokeColor=inherit;" vertex="1" parent="C7eaALjE-LQ2mHw-FxNQ-7">
          <mxGeometry y="52" width="270" height="8" as="geometry" />
        </mxCell>
        <mxCell id="C7eaALjE-LQ2mHw-FxNQ-10" value="# authorize(User): boolean" style="text;strokeColor=none;fillColor=none;align=left;verticalAlign=top;spacingLeft=4;spacingRight=4;overflow=hidden;rotatable=0;points=[[0,0.5],[1,0.5]];portConstraint=eastwest;whiteSpace=wrap;html=1;" vertex="1" parent="C7eaALjE-LQ2mHw-FxNQ-7">
          <mxGeometry y="60" width="270" height="26" as="geometry" />
        </mxCell>
        <mxCell id="C7eaALjE-LQ2mHw-FxNQ-11" value="# executeCommand(String, User): FtpResponse" style="text;strokeColor=none;fillColor=none;align=left;verticalAlign=top;spacingLeft=4;spacingRight=4;overflow=hidden;rotatable=0;points=[[0,0.5],[1,0.5]];portConstraint=eastwest;whiteSpace=wrap;html=1;" vertex="1" parent="C7eaALjE-LQ2mHw-FxNQ-7">
          <mxGeometry y="86" width="270" height="26" as="geometry" />
        </mxCell>
        <mxCell id="C7eaALjE-LQ2mHw-FxNQ-12" value="RestoreCommandHandler" style="swimlane;fontStyle=1;align=center;verticalAlign=top;childLayout=stackLayout;horizontal=1;startSize=26;horizontalStack=0;resizeParent=1;resizeParentMax=0;resizeLast=0;collapsible=1;marginBottom=0;whiteSpace=wrap;html=1;" vertex="1" parent="1">
          <mxGeometry x="300" y="180" width="270" height="112" as="geometry" />
        </mxCell>
        <mxCell id="C7eaALjE-LQ2mHw-FxNQ-13" value="+ RestoreComandHandler" style="text;strokeColor=none;fillColor=none;align=left;verticalAlign=top;spacingLeft=4;spacingRight=4;overflow=hidden;rotatable=0;points=[[0,0.5],[1,0.5]];portConstraint=eastwest;whiteSpace=wrap;html=1;" vertex="1" parent="C7eaALjE-LQ2mHw-FxNQ-12">
          <mxGeometry y="26" width="270" height="26" as="geometry" />
        </mxCell>
        <mxCell id="C7eaALjE-LQ2mHw-FxNQ-14" value="" style="line;strokeWidth=1;fillColor=none;align=left;verticalAlign=middle;spacingTop=-1;spacingLeft=3;spacingRight=3;rotatable=0;labelPosition=right;points=[];portConstraint=eastwest;strokeColor=inherit;" vertex="1" parent="C7eaALjE-LQ2mHw-FxNQ-12">
          <mxGeometry y="52" width="270" height="8" as="geometry" />
        </mxCell>
        <mxCell id="C7eaALjE-LQ2mHw-FxNQ-15" value="# authorize(User): boolean" style="text;strokeColor=none;fillColor=none;align=left;verticalAlign=top;spacingLeft=4;spacingRight=4;overflow=hidden;rotatable=0;points=[[0,0.5],[1,0.5]];portConstraint=eastwest;whiteSpace=wrap;html=1;" vertex="1" parent="C7eaALjE-LQ2mHw-FxNQ-12">
          <mxGeometry y="60" width="270" height="26" as="geometry" />
        </mxCell>
        <mxCell id="C7eaALjE-LQ2mHw-FxNQ-16" value="# executeCommand(String, User): FtpResponse" style="text;strokeColor=none;fillColor=none;align=left;verticalAlign=top;spacingLeft=4;spacingRight=4;overflow=hidden;rotatable=0;points=[[0,0.5],[1,0.5]];portConstraint=eastwest;whiteSpace=wrap;html=1;" vertex="1" parent="C7eaALjE-LQ2mHw-FxNQ-12">
          <mxGeometry y="86" width="270" height="26" as="geometry" />
        </mxCell>
        <mxCell id="C7eaALjE-LQ2mHw-FxNQ-17" value="CdupCommandHandler" style="swimlane;fontStyle=1;align=center;verticalAlign=top;childLayout=stackLayout;horizontal=1;startSize=26;horizontalStack=0;resizeParent=1;resizeParentMax=0;resizeLast=0;collapsible=1;marginBottom=0;whiteSpace=wrap;html=1;" vertex="1" parent="1">
          <mxGeometry x="600" y="180" width="270" height="112" as="geometry" />
        </mxCell>
        <mxCell id="C7eaALjE-LQ2mHw-FxNQ-18" value="+ CdupCommandHandler(StringBuilder)" style="text;strokeColor=none;fillColor=none;align=left;verticalAlign=top;spacingLeft=4;spacingRight=4;overflow=hidden;rotatable=0;points=[[0,0.5],[1,0.5]];portConstraint=eastwest;whiteSpace=wrap;html=1;" vertex="1" parent="C7eaALjE-LQ2mHw-FxNQ-17">
          <mxGeometry y="26" width="270" height="26" as="geometry" />
        </mxCell>
        <mxCell id="C7eaALjE-LQ2mHw-FxNQ-19" value="" style="line;strokeWidth=1;fillColor=none;align=left;verticalAlign=middle;spacingTop=-1;spacingLeft=3;spacingRight=3;rotatable=0;labelPosition=right;points=[];portConstraint=eastwest;strokeColor=inherit;" vertex="1" parent="C7eaALjE-LQ2mHw-FxNQ-17">
          <mxGeometry y="52" width="270" height="8" as="geometry" />
        </mxCell>
        <mxCell id="C7eaALjE-LQ2mHw-FxNQ-20" value="# authorize(User): boolean" style="text;strokeColor=none;fillColor=none;align=left;verticalAlign=top;spacingLeft=4;spacingRight=4;overflow=hidden;rotatable=0;points=[[0,0.5],[1,0.5]];portConstraint=eastwest;whiteSpace=wrap;html=1;" vertex="1" parent="C7eaALjE-LQ2mHw-FxNQ-17">
          <mxGeometry y="60" width="270" height="26" as="geometry" />
        </mxCell>
        <mxCell id="C7eaALjE-LQ2mHw-FxNQ-21" value="# executeCommand(String, User): FtpResponse" style="text;strokeColor=none;fillColor=none;align=left;verticalAlign=top;spacingLeft=4;spacingRight=4;overflow=hidden;rotatable=0;points=[[0,0.5],[1,0.5]];portConstraint=eastwest;whiteSpace=wrap;html=1;" vertex="1" parent="C7eaALjE-LQ2mHw-FxNQ-17">
          <mxGeometry y="86" width="270" height="26" as="geometry" />
        </mxCell>
        <mxCell id="C7eaALjE-LQ2mHw-FxNQ-22" value="CwdCommandHandler" style="swimlane;fontStyle=1;align=center;verticalAlign=top;childLayout=stackLayout;horizontal=1;startSize=26;horizontalStack=0;resizeParent=1;resizeParentMax=0;resizeLast=0;collapsible=1;marginBottom=0;whiteSpace=wrap;html=1;" vertex="1" parent="1">
          <mxGeometry x="900" y="180" width="270" height="112" as="geometry" />
        </mxCell>
        <mxCell id="C7eaALjE-LQ2mHw-FxNQ-23" value="+ CwdCommandHander(StringBuilder)" style="text;strokeColor=none;fillColor=none;align=left;verticalAlign=top;spacingLeft=4;spacingRight=4;overflow=hidden;rotatable=0;points=[[0,0.5],[1,0.5]];portConstraint=eastwest;whiteSpace=wrap;html=1;" vertex="1" parent="C7eaALjE-LQ2mHw-FxNQ-22">
          <mxGeometry y="26" width="270" height="26" as="geometry" />
        </mxCell>
        <mxCell id="C7eaALjE-LQ2mHw-FxNQ-24" value="" style="line;strokeWidth=1;fillColor=none;align=left;verticalAlign=middle;spacingTop=-1;spacingLeft=3;spacingRight=3;rotatable=0;labelPosition=right;points=[];portConstraint=eastwest;strokeColor=inherit;" vertex="1" parent="C7eaALjE-LQ2mHw-FxNQ-22">
          <mxGeometry y="52" width="270" height="8" as="geometry" />
        </mxCell>
        <mxCell id="C7eaALjE-LQ2mHw-FxNQ-25" value="# authorize(User): boolean" style="text;strokeColor=none;fillColor=none;align=left;verticalAlign=top;spacingLeft=4;spacingRight=4;overflow=hidden;rotatable=0;points=[[0,0.5],[1,0.5]];portConstraint=eastwest;whiteSpace=wrap;html=1;" vertex="1" parent="C7eaALjE-LQ2mHw-FxNQ-22">
          <mxGeometry y="60" width="270" height="26" as="geometry" />
        </mxCell>
        <mxCell id="C7eaALjE-LQ2mHw-FxNQ-26" value="# executeCommand(String, User): FtpResponse" style="text;strokeColor=none;fillColor=none;align=left;verticalAlign=top;spacingLeft=4;spacingRight=4;overflow=hidden;rotatable=0;points=[[0,0.5],[1,0.5]];portConstraint=eastwest;whiteSpace=wrap;html=1;" vertex="1" parent="C7eaALjE-LQ2mHw-FxNQ-22">
          <mxGeometry y="86" width="270" height="26" as="geometry" />
        </mxCell>
        <mxCell id="C7eaALjE-LQ2mHw-FxNQ-27" value="UsersCommandHandler" style="swimlane;fontStyle=1;align=center;verticalAlign=top;childLayout=stackLayout;horizontal=1;startSize=26;horizontalStack=0;resizeParent=1;resizeParentMax=0;resizeLast=0;collapsible=1;marginBottom=0;whiteSpace=wrap;html=1;" vertex="1" parent="1">
          <mxGeometry y="320" width="280" height="112" as="geometry" />
        </mxCell>
        <mxCell id="C7eaALjE-LQ2mHw-FxNQ-28" value="+ UsersCommandHandler(UI)" style="text;strokeColor=none;fillColor=none;align=left;verticalAlign=top;spacingLeft=4;spacingRight=4;overflow=hidden;rotatable=0;points=[[0,0.5],[1,0.5]];portConstraint=eastwest;whiteSpace=wrap;html=1;" vertex="1" parent="C7eaALjE-LQ2mHw-FxNQ-27">
          <mxGeometry y="26" width="280" height="26" as="geometry" />
        </mxCell>
        <mxCell id="C7eaALjE-LQ2mHw-FxNQ-29" value="" style="line;strokeWidth=1;fillColor=none;align=left;verticalAlign=middle;spacingTop=-1;spacingLeft=3;spacingRight=3;rotatable=0;labelPosition=right;points=[];portConstraint=eastwest;strokeColor=inherit;" vertex="1" parent="C7eaALjE-LQ2mHw-FxNQ-27">
          <mxGeometry y="52" width="280" height="8" as="geometry" />
        </mxCell>
        <mxCell id="C7eaALjE-LQ2mHw-FxNQ-30" value="# authorize(User): boolean" style="text;strokeColor=none;fillColor=none;align=left;verticalAlign=top;spacingLeft=4;spacingRight=4;overflow=hidden;rotatable=0;points=[[0,0.5],[1,0.5]];portConstraint=eastwest;whiteSpace=wrap;html=1;" vertex="1" parent="C7eaALjE-LQ2mHw-FxNQ-27">
          <mxGeometry y="60" width="280" height="26" as="geometry" />
        </mxCell>
        <mxCell id="C7eaALjE-LQ2mHw-FxNQ-31" value="# executeCommand(String, User): FtpResponse" style="text;strokeColor=none;fillColor=none;align=left;verticalAlign=top;spacingLeft=4;spacingRight=4;overflow=hidden;rotatable=0;points=[[0,0.5],[1,0.5]];portConstraint=eastwest;whiteSpace=wrap;html=1;" vertex="1" parent="C7eaALjE-LQ2mHw-FxNQ-27">
          <mxGeometry y="86" width="280" height="26" as="geometry" />
        </mxCell>
        <mxCell id="C7eaALjE-LQ2mHw-FxNQ-32" value="LogCommandHandler" style="swimlane;fontStyle=1;align=center;verticalAlign=top;childLayout=stackLayout;horizontal=1;startSize=26;horizontalStack=0;resizeParent=1;resizeParentMax=0;resizeLast=0;collapsible=1;marginBottom=0;whiteSpace=wrap;html=1;" vertex="1" parent="1">
          <mxGeometry x="300" y="320" width="270" height="112" as="geometry" />
        </mxCell>
        <mxCell id="C7eaALjE-LQ2mHw-FxNQ-33" value="+ LogCommandHandler(UI)" style="text;strokeColor=none;fillColor=none;align=left;verticalAlign=top;spacingLeft=4;spacingRight=4;overflow=hidden;rotatable=0;points=[[0,0.5],[1,0.5]];portConstraint=eastwest;whiteSpace=wrap;html=1;" vertex="1" parent="C7eaALjE-LQ2mHw-FxNQ-32">
          <mxGeometry y="26" width="270" height="26" as="geometry" />
        </mxCell>
        <mxCell id="C7eaALjE-LQ2mHw-FxNQ-34" value="" style="line;strokeWidth=1;fillColor=none;align=left;verticalAlign=middle;spacingTop=-1;spacingLeft=3;spacingRight=3;rotatable=0;labelPosition=right;points=[];portConstraint=eastwest;strokeColor=inherit;" vertex="1" parent="C7eaALjE-LQ2mHw-FxNQ-32">
          <mxGeometry y="52" width="270" height="8" as="geometry" />
        </mxCell>
        <mxCell id="C7eaALjE-LQ2mHw-FxNQ-35" value="# authorize(User): boolean" style="text;strokeColor=none;fillColor=none;align=left;verticalAlign=top;spacingLeft=4;spacingRight=4;overflow=hidden;rotatable=0;points=[[0,0.5],[1,0.5]];portConstraint=eastwest;whiteSpace=wrap;html=1;" vertex="1" parent="C7eaALjE-LQ2mHw-FxNQ-32">
          <mxGeometry y="60" width="270" height="26" as="geometry" />
        </mxCell>
        <mxCell id="C7eaALjE-LQ2mHw-FxNQ-36" value="# executeCommand(String, User): FtpResponse" style="text;strokeColor=none;fillColor=none;align=left;verticalAlign=top;spacingLeft=4;spacingRight=4;overflow=hidden;rotatable=0;points=[[0,0.5],[1,0.5]];portConstraint=eastwest;whiteSpace=wrap;html=1;" vertex="1" parent="C7eaALjE-LQ2mHw-FxNQ-32">
          <mxGeometry y="86" width="270" height="26" as="geometry" />
        </mxCell>
        <mxCell id="C7eaALjE-LQ2mHw-FxNQ-37" value="TypeCommandHandler" style="swimlane;fontStyle=1;align=center;verticalAlign=top;childLayout=stackLayout;horizontal=1;startSize=26;horizontalStack=0;resizeParent=1;resizeParentMax=0;resizeLast=0;collapsible=1;marginBottom=0;whiteSpace=wrap;html=1;" vertex="1" parent="1">
          <mxGeometry x="600" y="320" width="270" height="112" as="geometry" />
        </mxCell>
        <mxCell id="C7eaALjE-LQ2mHw-FxNQ-38" value="+ TypeCommandHandler()" style="text;strokeColor=none;fillColor=none;align=left;verticalAlign=top;spacingLeft=4;spacingRight=4;overflow=hidden;rotatable=0;points=[[0,0.5],[1,0.5]];portConstraint=eastwest;whiteSpace=wrap;html=1;" vertex="1" parent="C7eaALjE-LQ2mHw-FxNQ-37">
          <mxGeometry y="26" width="270" height="26" as="geometry" />
        </mxCell>
        <mxCell id="C7eaALjE-LQ2mHw-FxNQ-39" value="" style="line;strokeWidth=1;fillColor=none;align=left;verticalAlign=middle;spacingTop=-1;spacingLeft=3;spacingRight=3;rotatable=0;labelPosition=right;points=[];portConstraint=eastwest;strokeColor=inherit;" vertex="1" parent="C7eaALjE-LQ2mHw-FxNQ-37">
          <mxGeometry y="52" width="270" height="8" as="geometry" />
        </mxCell>
        <mxCell id="C7eaALjE-LQ2mHw-FxNQ-40" value="# authorize(User): boolean" style="text;strokeColor=none;fillColor=none;align=left;verticalAlign=top;spacingLeft=4;spacingRight=4;overflow=hidden;rotatable=0;points=[[0,0.5],[1,0.5]];portConstraint=eastwest;whiteSpace=wrap;html=1;" vertex="1" parent="C7eaALjE-LQ2mHw-FxNQ-37">
          <mxGeometry y="60" width="270" height="26" as="geometry" />
        </mxCell>
        <mxCell id="C7eaALjE-LQ2mHw-FxNQ-41" value="# executeCommand(String, User): FtpResponse" style="text;strokeColor=none;fillColor=none;align=left;verticalAlign=top;spacingLeft=4;spacingRight=4;overflow=hidden;rotatable=0;points=[[0,0.5],[1,0.5]];portConstraint=eastwest;whiteSpace=wrap;html=1;" vertex="1" parent="C7eaALjE-LQ2mHw-FxNQ-37">
          <mxGeometry y="86" width="270" height="26" as="geometry" />
        </mxCell>
        <mxCell id="C7eaALjE-LQ2mHw-FxNQ-42" value="QuitCommandHandler" style="swimlane;fontStyle=1;align=center;verticalAlign=top;childLayout=stackLayout;horizontal=1;startSize=26;horizontalStack=0;resizeParent=1;resizeParentMax=0;resizeLast=0;collapsible=1;marginBottom=0;whiteSpace=wrap;html=1;" vertex="1" parent="1">
          <mxGeometry x="900" y="320" width="270" height="112" as="geometry" />
        </mxCell>
        <mxCell id="C7eaALjE-LQ2mHw-FxNQ-43" value="+ QuitCommandHandler()" style="text;strokeColor=none;fillColor=none;align=left;verticalAlign=top;spacingLeft=4;spacingRight=4;overflow=hidden;rotatable=0;points=[[0,0.5],[1,0.5]];portConstraint=eastwest;whiteSpace=wrap;html=1;" vertex="1" parent="C7eaALjE-LQ2mHw-FxNQ-42">
          <mxGeometry y="26" width="270" height="26" as="geometry" />
        </mxCell>
        <mxCell id="C7eaALjE-LQ2mHw-FxNQ-44" value="" style="line;strokeWidth=1;fillColor=none;align=left;verticalAlign=middle;spacingTop=-1;spacingLeft=3;spacingRight=3;rotatable=0;labelPosition=right;points=[];portConstraint=eastwest;strokeColor=inherit;" vertex="1" parent="C7eaALjE-LQ2mHw-FxNQ-42">
          <mxGeometry y="52" width="270" height="8" as="geometry" />
        </mxCell>
        <mxCell id="C7eaALjE-LQ2mHw-FxNQ-45" value="# authorize(User): boolean" style="text;strokeColor=none;fillColor=none;align=left;verticalAlign=top;spacingLeft=4;spacingRight=4;overflow=hidden;rotatable=0;points=[[0,0.5],[1,0.5]];portConstraint=eastwest;whiteSpace=wrap;html=1;" vertex="1" parent="C7eaALjE-LQ2mHw-FxNQ-42">
          <mxGeometry y="60" width="270" height="26" as="geometry" />
        </mxCell>
        <mxCell id="C7eaALjE-LQ2mHw-FxNQ-46" value="# executeCommand(String, User): FtpResponse" style="text;strokeColor=none;fillColor=none;align=left;verticalAlign=top;spacingLeft=4;spacingRight=4;overflow=hidden;rotatable=0;points=[[0,0.5],[1,0.5]];portConstraint=eastwest;whiteSpace=wrap;html=1;" vertex="1" parent="C7eaALjE-LQ2mHw-FxNQ-42">
          <mxGeometry y="86" width="270" height="26" as="geometry" />
        </mxCell>
        <mxCell id="C7eaALjE-LQ2mHw-FxNQ-54" value="RetrieveCommandHandler" style="swimlane;fontStyle=1;align=center;verticalAlign=top;childLayout=stackLayout;horizontal=1;startSize=26;horizontalStack=0;resizeParent=1;resizeParentMax=0;resizeLast=0;collapsible=1;marginBottom=0;whiteSpace=wrap;html=1;" vertex="1" parent="1">
          <mxGeometry x="450" y="470" width="270" height="164" as="geometry" />
        </mxCell>
        <mxCell id="C7eaALjE-LQ2mHw-FxNQ-55" value="+ RetrCommandHandler(Socket, String)" style="text;strokeColor=none;fillColor=none;align=left;verticalAlign=top;spacingLeft=4;spacingRight=4;overflow=hidden;rotatable=0;points=[[0,0.5],[1,0.5]];portConstraint=eastwest;whiteSpace=wrap;html=1;" vertex="1" parent="C7eaALjE-LQ2mHw-FxNQ-54">
          <mxGeometry y="26" width="270" height="26" as="geometry" />
        </mxCell>
        <mxCell id="C7eaALjE-LQ2mHw-FxNQ-56" value="" style="line;strokeWidth=1;fillColor=none;align=left;verticalAlign=middle;spacingTop=-1;spacingLeft=3;spacingRight=3;rotatable=0;labelPosition=right;points=[];portConstraint=eastwest;strokeColor=inherit;" vertex="1" parent="C7eaALjE-LQ2mHw-FxNQ-54">
          <mxGeometry y="52" width="270" height="8" as="geometry" />
        </mxCell>
        <mxCell id="C7eaALjE-LQ2mHw-FxNQ-57" value="# authorize(User): boolean" style="text;strokeColor=none;fillColor=none;align=left;verticalAlign=top;spacingLeft=4;spacingRight=4;overflow=hidden;rotatable=0;points=[[0,0.5],[1,0.5]];portConstraint=eastwest;whiteSpace=wrap;html=1;" vertex="1" parent="C7eaALjE-LQ2mHw-FxNQ-54">
          <mxGeometry y="60" width="270" height="26" as="geometry" />
        </mxCell>
        <mxCell id="C7eaALjE-LQ2mHw-FxNQ-58" value="# executeCommand(String, User): FtpResponse" style="text;strokeColor=none;fillColor=none;align=left;verticalAlign=top;spacingLeft=4;spacingRight=4;overflow=hidden;rotatable=0;points=[[0,0.5],[1,0.5]];portConstraint=eastwest;whiteSpace=wrap;html=1;" vertex="1" parent="C7eaALjE-LQ2mHw-FxNQ-54">
          <mxGeometry y="86" width="270" height="26" as="geometry" />
        </mxCell>
        <mxCell id="C7eaALjE-LQ2mHw-FxNQ-59" value="- sendFile(String, DataOutputStream): void" style="text;strokeColor=none;fillColor=none;align=left;verticalAlign=top;spacingLeft=4;spacingRight=4;overflow=hidden;rotatable=0;points=[[0,0.5],[1,0.5]];portConstraint=eastwest;whiteSpace=wrap;html=1;" vertex="1" parent="C7eaALjE-LQ2mHw-FxNQ-54">
          <mxGeometry y="112" width="270" height="26" as="geometry" />
        </mxCell>
        <mxCell id="C7eaALjE-LQ2mHw-FxNQ-60" value="- getFilePath(String): String" style="text;strokeColor=none;fillColor=none;align=left;verticalAlign=top;spacingLeft=4;spacingRight=4;overflow=hidden;rotatable=0;points=[[0,0.5],[1,0.5]];portConstraint=eastwest;whiteSpace=wrap;html=1;" vertex="1" parent="C7eaALjE-LQ2mHw-FxNQ-54">
          <mxGeometry y="138" width="270" height="26" as="geometry" />
        </mxCell>
        <mxCell id="C7eaALjE-LQ2mHw-FxNQ-68" value="ListCommandHandler" style="swimlane;fontStyle=1;align=center;verticalAlign=top;childLayout=stackLayout;horizontal=1;startSize=26;horizontalStack=0;resizeParent=1;resizeParentMax=0;resizeLast=0;collapsible=1;marginBottom=0;whiteSpace=wrap;html=1;" vertex="1" parent="1">
          <mxGeometry x="770" y="470" width="270" height="138" as="geometry" />
        </mxCell>
        <mxCell id="C7eaALjE-LQ2mHw-FxNQ-69" value="+ ListCommandHandler(Socket, String)" style="text;strokeColor=none;fillColor=none;align=left;verticalAlign=top;spacingLeft=4;spacingRight=4;overflow=hidden;rotatable=0;points=[[0,0.5],[1,0.5]];portConstraint=eastwest;whiteSpace=wrap;html=1;" vertex="1" parent="C7eaALjE-LQ2mHw-FxNQ-68">
          <mxGeometry y="26" width="270" height="26" as="geometry" />
        </mxCell>
        <mxCell id="C7eaALjE-LQ2mHw-FxNQ-70" value="" style="line;strokeWidth=1;fillColor=none;align=left;verticalAlign=middle;spacingTop=-1;spacingLeft=3;spacingRight=3;rotatable=0;labelPosition=right;points=[];portConstraint=eastwest;strokeColor=inherit;" vertex="1" parent="C7eaALjE-LQ2mHw-FxNQ-68">
          <mxGeometry y="52" width="270" height="8" as="geometry" />
        </mxCell>
        <mxCell id="C7eaALjE-LQ2mHw-FxNQ-71" value="# authorize(User): boolean" style="text;strokeColor=none;fillColor=none;align=left;verticalAlign=top;spacingLeft=4;spacingRight=4;overflow=hidden;rotatable=0;points=[[0,0.5],[1,0.5]];portConstraint=eastwest;whiteSpace=wrap;html=1;" vertex="1" parent="C7eaALjE-LQ2mHw-FxNQ-68">
          <mxGeometry y="60" width="270" height="26" as="geometry" />
        </mxCell>
        <mxCell id="C7eaALjE-LQ2mHw-FxNQ-72" value="# executeCommand(String, User): FtpResponse" style="text;strokeColor=none;fillColor=none;align=left;verticalAlign=top;spacingLeft=4;spacingRight=4;overflow=hidden;rotatable=0;points=[[0,0.5],[1,0.5]];portConstraint=eastwest;whiteSpace=wrap;html=1;" vertex="1" parent="C7eaALjE-LQ2mHw-FxNQ-68">
          <mxGeometry y="86" width="270" height="26" as="geometry" />
        </mxCell>
        <mxCell id="C7eaALjE-LQ2mHw-FxNQ-73" value="- getFileInfo(File): Srting" style="text;strokeColor=none;fillColor=none;align=left;verticalAlign=top;spacingLeft=4;spacingRight=4;overflow=hidden;rotatable=0;points=[[0,0.5],[1,0.5]];portConstraint=eastwest;whiteSpace=wrap;html=1;" vertex="1" parent="C7eaALjE-LQ2mHw-FxNQ-68">
          <mxGeometry y="112" width="270" height="26" as="geometry" />
        </mxCell>
        <mxCell id="C7eaALjE-LQ2mHw-FxNQ-75" value="" style="endArrow=block;html=1;rounded=0;exitX=0.5;exitY=0;exitDx=0;exitDy=0;entryX=0;entryY=0.04;entryDx=0;entryDy=0;endFill=0;entryPerimeter=0;" edge="1" parent="1" source="C7eaALjE-LQ2mHw-FxNQ-7" target="C7eaALjE-LQ2mHw-FxNQ-1">
          <mxGeometry width="50" height="50" relative="1" as="geometry">
            <mxPoint x="180" y="100" as="sourcePoint" />
            <mxPoint x="230" y="50" as="targetPoint" />
            <Array as="points">
              <mxPoint x="135" y="25" />
            </Array>
          </mxGeometry>
        </mxCell>
        <mxCell id="C7eaALjE-LQ2mHw-FxNQ-76" value="" style="endArrow=block;html=1;rounded=0;exitX=0.5;exitY=0;exitDx=0;exitDy=0;entryX=0;entryY=0.52;entryDx=0;entryDy=0;endFill=0;entryPerimeter=0;" edge="1" parent="1" target="C7eaALjE-LQ2mHw-FxNQ-5">
          <mxGeometry width="50" height="50" relative="1" as="geometry">
            <mxPoint x="410" y="180" as="sourcePoint" />
            <mxPoint x="420" y="119" as="targetPoint" />
            <Array as="points">
              <mxPoint x="410" y="150" />
              <mxPoint x="410" y="120" />
            </Array>
          </mxGeometry>
        </mxCell>
        <mxCell id="C7eaALjE-LQ2mHw-FxNQ-77" value="" style="endArrow=block;html=1;rounded=0;exitX=0.58;exitY=-0.001;exitDx=0;exitDy=0;exitPerimeter=0;entryX=1;entryY=0.5;entryDx=0;entryDy=0;endFill=0;" edge="1" parent="1" source="C7eaALjE-LQ2mHw-FxNQ-17" target="C7eaALjE-LQ2mHw-FxNQ-5">
          <mxGeometry width="50" height="50" relative="1" as="geometry">
            <mxPoint x="800" y="120" as="sourcePoint" />
            <mxPoint x="850" y="70" as="targetPoint" />
            <Array as="points">
              <mxPoint x="757" y="119" />
            </Array>
          </mxGeometry>
        </mxCell>
        <mxCell id="C7eaALjE-LQ2mHw-FxNQ-78" value="" style="endArrow=block;html=1;rounded=0;exitX=0.5;exitY=0;exitDx=0;exitDy=0;endFill=0;entryX=1.001;entryY=0.055;entryDx=0;entryDy=0;entryPerimeter=0;" edge="1" parent="1" source="C7eaALjE-LQ2mHw-FxNQ-22" target="C7eaALjE-LQ2mHw-FxNQ-1">
          <mxGeometry width="50" height="50" relative="1" as="geometry">
            <mxPoint x="840" y="120" as="sourcePoint" />
            <mxPoint x="730" y="30" as="targetPoint" />
            <Array as="points">
              <mxPoint x="1035" y="26" />
            </Array>
          </mxGeometry>
        </mxCell>
        <mxCell id="C7eaALjE-LQ2mHw-FxNQ-79" value="" style="endArrow=block;html=1;rounded=0;exitX=0.5;exitY=0;exitDx=0;exitDy=0;entryX=0;entryY=0.149;entryDx=0;entryDy=0;entryPerimeter=0;endFill=0;" edge="1" parent="1" source="C7eaALjE-LQ2mHw-FxNQ-27" target="C7eaALjE-LQ2mHw-FxNQ-1">
          <mxGeometry width="50" height="50" relative="1" as="geometry">
            <mxPoint x="200" y="280" as="sourcePoint" />
            <mxPoint x="280" y="70" as="targetPoint" />
            <Array as="points">
              <mxPoint x="140" y="310" />
              <mxPoint x="280" y="310" />
              <mxPoint x="280" y="40" />
              <mxPoint x="290" y="40" />
            </Array>
          </mxGeometry>
        </mxCell>
        <mxCell id="C7eaALjE-LQ2mHw-FxNQ-80" value="" style="endArrow=block;html=1;rounded=0;exitX=0.5;exitY=0;exitDx=0;exitDy=0;entryX=0;entryY=0.5;entryDx=0;entryDy=0;endFill=0;" edge="1" parent="1" source="C7eaALjE-LQ2mHw-FxNQ-32" target="C7eaALjE-LQ2mHw-FxNQ-2">
          <mxGeometry width="50" height="50" relative="1" as="geometry">
            <mxPoint x="320" y="160" as="sourcePoint" />
            <mxPoint x="370" y="110" as="targetPoint" />
            <Array as="points">
              <mxPoint x="435" y="310" />
              <mxPoint x="290" y="310" />
              <mxPoint x="290" y="190" />
              <mxPoint x="290" y="60" />
            </Array>
          </mxGeometry>
        </mxCell>
        <mxCell id="C7eaALjE-LQ2mHw-FxNQ-81" value="" style="endArrow=block;html=1;rounded=0;exitX=0.5;exitY=0;exitDx=0;exitDy=0;entryX=1.001;entryY=0.144;entryDx=0;entryDy=0;entryPerimeter=0;endFill=0;" edge="1" parent="1" source="C7eaALjE-LQ2mHw-FxNQ-42" target="C7eaALjE-LQ2mHw-FxNQ-1">
          <mxGeometry width="50" height="50" relative="1" as="geometry">
            <mxPoint x="820" y="120" as="sourcePoint" />
            <mxPoint x="725" y="36" as="targetPoint" />
            <Array as="points">
              <mxPoint x="1035" y="310" />
              <mxPoint x="890" y="310" />
              <mxPoint x="890" y="40" />
            </Array>
          </mxGeometry>
        </mxCell>
        <mxCell id="C7eaALjE-LQ2mHw-FxNQ-82" value="" style="endArrow=block;html=1;rounded=0;exitX=0.5;exitY=0;exitDx=0;exitDy=0;entryX=1;entryY=0.5;entryDx=0;entryDy=0;endFill=0;" edge="1" parent="1" source="C7eaALjE-LQ2mHw-FxNQ-37" target="C7eaALjE-LQ2mHw-FxNQ-2">
          <mxGeometry width="50" height="50" relative="1" as="geometry">
            <mxPoint x="790" y="360" as="sourcePoint" />
            <mxPoint x="800" y="130" as="targetPoint" />
            <Array as="points">
              <mxPoint x="735" y="310" />
              <mxPoint x="880" y="310" />
              <mxPoint x="880" y="60" />
            </Array>
          </mxGeometry>
        </mxCell>
        <mxCell id="C7eaALjE-LQ2mHw-FxNQ-83" value="" style="endArrow=block;html=1;rounded=0;exitX=0.5;exitY=0;exitDx=0;exitDy=0;entryX=0.25;entryY=1;entryDx=0;entryDy=0;endFill=0;" edge="1" parent="1" source="C7eaALjE-LQ2mHw-FxNQ-47" target="C7eaALjE-LQ2mHw-FxNQ-1">
          <mxGeometry width="50" height="50" relative="1" as="geometry">
            <mxPoint x="290" y="490" as="sourcePoint" />
            <mxPoint x="340" y="440" as="targetPoint" />
            <Array as="points">
              <mxPoint x="260" y="450" />
              <mxPoint x="580" y="450" />
              <mxPoint x="580" y="170" />
              <mxPoint x="515" y="170" />
            </Array>
          </mxGeometry>
        </mxCell>
        <mxCell id="C7eaALjE-LQ2mHw-FxNQ-84" value="" style="endArrow=block;html=1;rounded=0;exitX=0.5;exitY=0;exitDx=0;exitDy=0;endFill=0;" edge="1" parent="1" source="C7eaALjE-LQ2mHw-FxNQ-54">
          <mxGeometry width="50" height="50" relative="1" as="geometry">
            <mxPoint x="630" y="490" as="sourcePoint" />
            <mxPoint x="585" y="158" as="targetPoint" />
          </mxGeometry>
        </mxCell>
        <mxCell id="C7eaALjE-LQ2mHw-FxNQ-85" value="" style="endArrow=block;html=1;rounded=0;exitX=0.5;exitY=0;exitDx=0;exitDy=0;entryX=0.75;entryY=1;entryDx=0;entryDy=0;endFill=0;" edge="1" parent="1" source="C7eaALjE-LQ2mHw-FxNQ-68" target="C7eaALjE-LQ2mHw-FxNQ-1">
          <mxGeometry width="50" height="50" relative="1" as="geometry">
            <mxPoint x="640" y="490" as="sourcePoint" />
            <mxPoint x="660" y="160" as="targetPoint" />
            <Array as="points">
              <mxPoint x="905" y="450" />
              <mxPoint x="590" y="450" />
              <mxPoint x="590" y="170" />
              <mxPoint x="655" y="170" />
            </Array>
          </mxGeometry>
        </mxCell>
      </root>
    </mxGraphModel>
  </diagram>
</mxfile>
